# xmcd
#
# Track frame offsets:
#	150
#	34895
#	44290
#	58632
#	69745
#	78490
#	95335
#	125842
#	142112
#	161060
#	176465
#	191116
#	203682
#
# Disc length: 3117 seconds
#
# Revision: 5
# Processed by: cddbd v1.5.2PL0 Copyright (c) Steve Scherf et al.
# Submitted via: EasyCDDAExtractor 15.3.0.1
#
DISCID=c00c2b0d
DTITLE=Selena - The Last Concert
DYEAR=2017
DGENRE=Latin
TTITLE0=Disco Medley (I Will Survive, Funky Town, Last Dance, The Hustle, On T
TTITLE0=he Radio)
TTITLE1=Amor Prohibido
TTITLE2=Baila Esta Cumbia
TTITLE3=Tus Desprecios
TTITLE4=Cobarde
TTITLE5=Techno Cumbia
TTITLE6=La Carcacha
TTITLE7=No Me Queda Mas
TTITLE8=Bidi Bidi Bom Bom
TTITLE9=Si Una Vez
TTITLE10=El Chico Del Apartamento 512
TTITLE11=Ya Ves
TTITLE12=Como La Flor
EXTD=
EXTT0=
EXTT1=
EXTT2=
EXTT3=
EXTT4=
EXTT5=
EXTT6=
EXTT7=
EXTT8=
EXTT9=
EXTT10=
EXTT11=
EXTT12=
PLAYORDER=
